<?xml version="1.0" encoding="utf-8"?>
<!-- Generator: Adobe Illustrator 27.9.0, SVG Export Plug-In . SVG Version: 6.00 Build 0)  -->
<svg version="1.1" id="Capa_1" xmlns="http://www.w3.org/2000/svg" xmlns:xlink="http://www.w3.org/1999/xlink" x="0px" y="0px"
	 viewBox="0 0 512 512" style="enable-background:new 0 0 512 512;" xml:space="preserve">
<style type="text/css">
	.st0{fill:#004CE8;}
	.st1{fill:#0065F4;}
	.st2{fill:#EBEBEB;}
	.st3{fill:#FFFFFF;}
</style>
<g>
	<path id="polygon2989_00000091712160093483359120000013545222466388029605_" class="st0" d="M437.4,100.6l-33,370.2L255.8,512
		l-148.1-41.1l-33-370.3L437.4,100.6z"/>
	<path id="polygon2991_00000130636505511401349330000011479272249651210121_" class="st1" d="M376,447.2l28.2-316.4H256v349.6
		L376,447.2z"/>
	<g>
		<path id="polygon2993_00000027586116533142052040000014804943466300760462_" class="st2" d="M150.3,268.2l4.1,45.4H256l19.5-22.7
			L256,268.2L150.3,268.2z"/>
		<path id="polygon2995_00000098936504455534668280000009583779879621411251_" class="st2" d="M256,176.3h-0.2H142.1l4.1,45.4H256
			l19.5-22.7L256,176.3z"/>
		<path id="polygon2997_00000011734588395863960860000002272664363377641402_" class="st2" d="M256,433.4l19.5-24.1L256,386.2
			l-0.2,0.1l-50.6-13.7l-3.2-36.2h-24.6h-21l6.4,71.3l93,25.8L256,433.4z"/>
	</g>
	<path id="path2999_00000183935336956994173500000009856227378309738643_" class="st3" d="M160,0h55v23h-32v23h32v23h-55V0z"/>
	<path id="path3001_00000096055226761582317920000005110122629658984122_" class="st3" d="M226,0h55v20h-32v4h32v46h-55V49h32v-4
		h-32V0z"/>
	<path id="path3003_00000136402835624896882680000006132478931596835508_" class="st3" d="M292,0h55v20h-32v4h32v46h-55V49h32v-4
		h-32V0z"/>
	<path id="polygon3005_00000173137955367200700520000015002477665718237887_" class="st3" d="M311.8,313.6l-5.3,58.9l-50.6,13.7
		v47.2l93.1-25.8l0.7-7.7l10.7-119.6l1.1-12.2l8.2-91.9H255.8v45.4h64l-4.1,46.5h-59.9v45.4L311.8,313.6z"/>
</g>
</svg>
